HIERARCHY
ROOT ui
{
	 OFFSET 0 0 0
	 CHANNELS 3 XPosition YPosition Z Position
	 EndSite
	 {
	 OFFSET 0 -1 0
	 }
}
ROOT li
{
	 OFFSET 0 0 0
	 CHANNELS 3 XPosition YPosition Z Position
	 EndSite
	 {
	 OFFSET 0 -1 0
	 }
}
ROOT ul
{
	 OFFSET 0 0 0
	 CHANNELS 3 XPosition YPosition Z Position
	 EndSite
	 {
	 OFFSET 0 -1 0
	 }
}
ROOT ll
{
	 OFFSET 0 0 0
	 CHANNELS 3 XPosition YPosition Z Position
	 EndSite
	 {
	 OFFSET 0 -1 0
	 }
}
ROOT tt
{
	 OFFSET 0 0 0
	 CHANNELS 3 XPosition YPosition Z Position
	 EndSite
	 {
	 OFFSET 0 -1 0
	 }
}
ROOT tb
{
	 OFFSET 0 0 0
	 CHANNELS 3 XPosition YPosition Z Position
	 EndSite
	 {
	 OFFSET 0 -1 0
	 }
}
ROOT td
{
	 OFFSET 0 0 0
	 CHANNELS 3 XPosition YPosition Z Position
	 EndSite
	 {
	 OFFSET 0 -1 0
	 }
}
ROOT v
{
	 OFFSET 0 0 0
	 CHANNELS 3 XPosition YPosition Z Position
	 EndSite
	 {
	 OFFSET 0 -1 0
	 }
}
ROOT bn
{
	 OFFSET 0 0 0
	 CHANNELS 3 XPosition YPosition Z Position
	 EndSite
	 {
	 OFFSET 0 -1 0
	 }
}
MOTION
Frames: 21
Frame Time: 0.002
-0.026625776290893556	0.0014215019941329957	0		0.6281431274414062	-2.697626220703125	0		-1.01808251953125	-0.10025698089599609	0		-0.40312173461914064	-2.78476806640625	0		2.20528955078125	-1.58173095703125	0		3.68243798828125	-0.76251806640625	0		4.8642021484375	-0.2673628234863281	0		5.9961044921875	0.46148397827148435	0		-0.07973356628417969	5.9436728515625	0		
0.026225379943847656	-8.043400198221207E-5	0		0.6509949340820312	-2.7047060546875	0		-1.0671923828125	-0.09841941070556641	0		-0.44827474975585935	-2.791965576171875	0		2.17391259765625	-1.6030391845703125	0		3.665901611328125	-0.7939837036132813	0		4.85998583984375	-0.2739573974609375	0		5.99596044921875	0.4618680114746094	0		-0.0800368423461914	5.94388037109375	0		
0.023089529037475586	-0.0028378748893737793	0		0.656798583984375	-2.718562744140625	0		-0.9741463012695313	-0.08849838256835937	0		-0.39055322265625	-2.81255322265625	0		2.1667353515625	-1.6126729736328125	0		3.68362890625	-0.8089033203125	0		4.83612841796875	-0.25627908325195314	0		5.9997421875	0.4542105712890625	0		-0.08131175994873047	5.94509228515625	0		
0.018976816177368162	-0.006592688083648682	0		0.6268246459960938	-2.7189482421875	0		-1.0501961669921875	-0.08732784271240235	0		-0.46853289794921876	-2.813335205078125	0		2.169545654296875	-1.6264442138671875	0		3.637508544921875	-0.81496728515625	0		4.839890625	-0.2699689636230469	0		5.98677392578125	0.46278695678710935	0		-0.11383332061767579	5.926708984375	0		
-0.029991491317749024	-0.0017616089582443237	0		0.6367820434570313	-2.727878173828125	0		-1.046166015625	-0.0832431869506836	0		-0.391737548828125	-2.83519775390625	0		2.136478271484375	-1.63374267578125	0		3.64720654296875	-0.8377804565429687	0		4.83170263671875	-0.282497314453125	0		5.9965029296875	0.44606332397460935	0		-0.08084996032714843	5.94444189453125	0		
0.02604621505737305	6.596429944038391E-4	0		0.6409488525390625	-2.72373974609375	0		-1.0440008544921875	-0.07114765167236328	0		-0.4645595703125	-2.83007958984375	0		2.138587158203125	-1.630516357421875	0		3.6391513671875	-0.8443590087890624	0		4.82353173828125	-0.29602688598632815	0		6.00469921875	0.4623663330078125	0		-0.08108981323242187	5.9446044921875	0		
0.026072334289550782	8.13950002193451E-4	0		0.659944580078125	-2.734809326171875	0		-0.9879500732421875	-0.06978007507324219	0		-0.41450909423828125	-2.83760693359375	0		2.131551513671875	-1.6401781005859375	0		3.635068603515625	-0.8549959716796875	0		4.83045068359375	-0.30475875854492185	0		5.99182568359375	0.4719480285644531	0		-0.11455364227294922	5.9271923828125	0		
-0.029920379638671876	-0.0013057349920272828	0		0.6321104125976562	-2.734270263671875	0		-1.0708187255859376	-0.06258962631225586	0		-0.4214459838867187	-2.8453916015625	0		2.093485107421875	-1.653440673828125	0		3.6077158203125	-0.8873351440429688	0		4.83024267578125	-0.32440191650390626	0		5.99963525390625	0.4562506103515625	0		-0.11477473449707032	5.927328125	0		
0.02312332534790039	-0.0018749990463256835	0		0.691028076171875	-2.75388671875	0		-1.005655029296875	-0.05436458206176758	0		-0.41546612548828127	-2.86035986328125	0		2.071584228515625	-1.6549281005859375	0		3.60146337890625	-0.9129618530273438	0		4.81518896484375	-0.3328564147949219	0		5.99166357421875	0.45675653076171874	0		-0.11598246002197266	5.92846435546875	0		
-0.056811630249023436	2.8959399461746217E-4	0		0.6403088989257812	-2.745071533203125	0		-1.0694449462890625	-0.04145771026611328	0		-0.4173155517578125	-2.862236328125	0		2.067522216796875	-1.668662841796875	0		3.586486083984375	-0.9174830932617187	0		4.80911865234375	-0.34243914794921876	0		5.9916875	0.45714849853515627	0		-0.08592474365234375	5.9501806640625	0		
0.02624220085144043	0.0013089690208435058	0		0.6664291381835937	-2.748276123046875	0		-0.9924277954101562	-0.043406585693359374	0		-0.41714852905273436	-2.86215087890625	0		2.0577001953125	-1.6633323974609375	0		3.586341552734375	-0.9342110595703125	0		4.81501220703125	-0.3541893615722656	0		6.00068701171875	0.4564128112792969	0		-0.11644920349121093	5.9286748046875	0		
-0.02977130317687988	-8.676459789276123E-4	0		0.6385916748046875	-2.74678759765625	0		-0.9924049682617188	-0.04335821151733398	0		-0.37623355102539063	-2.880607421875	0		2.050668212890625	-1.673052001953125	0		3.584119384765625	-0.9559243774414062	0		4.81094580078125	-0.3618213806152344	0		5.9997001953125	0.4577955627441406	0		-0.11768782806396484	5.9297763671875	0		
0.02322954750061035	-0.0014718660116195678	0		0.6896135864257813	-2.7553349609375	0		-1.0042672119140625	-0.03316495513916016	0		-0.423964111328125	-2.869919921875	0		2.006714111328125	-1.67530517578125	0		3.57500048828125	-0.9685604858398438	0		4.7956318359375	-0.38732305908203124	0		5.99578857421875	0.4662024536132813	0		-0.11893845367431641	5.9308671875	0		
-0.029776790618896484	-7.126880288124085E-4	0		0.63578125	-2.750533447265625	0		-1.0042765502929687	-0.03313558197021484	0		-0.3539307861328125	-2.876767822265625	0		2.0095966796875	-1.6891796875	0		3.549815185546875	-0.9850036010742188	0		4.79562548828125	-0.38803604125976565	0		6.00043408203125	0.441480224609375	0		-0.11919972991943359	5.93193603515625	0		
0.02319221305847168	-0.001330698013305664	0		0.6815994873046874	-2.772031005859375	0		-1.0002506103515625	-0.02916562271118164	0		-0.4478252868652344	-2.875508544921875	0		1.972723388671875	-1.6825521240234376	0		3.53051123046875	-1.0095385131835937	0		4.77848828125	-0.3975440368652344	0		5.99649169921875	0.4498555603027344	0		-0.11949564361572265	5.93099609375	0		
-0.022755666732788084	0.006316993236541748	0		0.641023681640625	-2.74442138671875	0		-0.9930862426757813	-0.013241184234619141	0		-0.37175262451171875	-2.876444580078125	0		1.979649169921875	-1.690501220703125	0		3.563393798828125	-1.0187557373046876	0		4.7802451171875	-0.4143108520507813	0		6.000533203125	0.4581120300292969	0		-0.08950577545166015	5.952662109375	0		
0.02309585952758789	-0.0012209099531173707	0		0.661962646484375	-2.75361279296875	0		-1.024099853515625	-0.009834695816040039	0		-0.42158526611328123	-2.8677705078125	0		1.9676888427734376	-1.6882176513671876	0		3.52212744140625	-1.0380357666015625	0		4.76919482421875	-0.4149268798828125	0		5.99635791015625	0.45045626831054686	0		-0.12105391693115235	5.93310693359375	0		
-0.05695135879516602	8.435009717941284E-4	0		0.6599769287109375	-2.755517578125	0		-1.0241658935546876	-0.009830177307128906	0		-0.3886076354980469	-2.873162841796875	0		1.9557138671875	-1.6859449462890626	0		3.50987255859375	-1.05570166015625	0		4.7729658203125	-0.4287488708496094	0		5.99117236328125	0.4427958068847656	0		-0.12134915161132813	5.93314599609375	0		
0.018905010223388672	-0.005086322784423828	0		0.6589783325195312	-2.75744287109375	0		-1.024239501953125	-0.0098298978805542	0		-0.4235356140136719	-2.86969482421875	0		1.9216026611328125	-1.693403076171875	0		3.499482177734375	-1.0834063720703124	0		4.7616796875	-0.4463955383300781	0		5.986197265625	0.452115234375	0		-0.12360157012939453	5.93620458984375	0		
-0.030113847732543945	-4.3314701318740846E-4	0		0.6699097290039062	-2.76452734375	0		-1.0111744995117187	0.0010011130571365356	0		-0.4065501708984375	-2.872892822265625	0		1.91854931640625	-1.69626708984375	0		3.505267822265625	-1.097329345703125	0		4.77336669921875	-0.46635076904296874	0		5.9960947265625	0.451225830078125	0		-0.12387897491455079	5.93623193359375	0		
0.02585679054260254	0.0018844670057296753	0		0.64500048828125	-2.75916357421875	0		-1.0131234130859375	0.01002013111114502	0		-0.40449603271484375	-2.870904541015625	0		1.9116424560546874	-1.688091064453125	0		3.4711669921875	-1.1027601318359375	0		4.77128125	-0.4691458740234375	0		5.996017578125	0.4514443359375	0		-0.1251188735961914	5.937267578125	0		
